<svg xmlns="http://www.w3.org/2000/svg" viewBox="0 0 120 120" width="120" height="120">
  <defs>
    <linearGradient id="potRed" x1="0%" y1="0%" x2="0%" y2="100%">
      <stop offset="0%" stop-color="#F44336"/>
      <stop offset="100%" stop-color="#B71C1C"/>
    </linearGradient>
    <linearGradient id="broth" x1="0%" y1="0%" x2="0%" y2="100%">
      <stop offset="0%" stop-color="#FF8A65"/>
      <stop offset="100%" stop-color="#E64A19"/>
    </linearGradient>
  </defs>
  <!-- Steam -->
  <path d="M38 30 Q34 18 40 10" fill="none" stroke="#E0E0E0" stroke-width="2.5" stroke-linecap="round" opacity="0.5"/>
  <path d="M55 26 Q52 14 58 6" fill="none" stroke="#E0E0E0" stroke-width="2.5" stroke-linecap="round" opacity="0.4"/>
  <path d="M72 28 Q68 16 74 8" fill="none" stroke="#E0E0E0" stroke-width="2.5" stroke-linecap="round" opacity="0.5"/>
  <!-- Pot body -->
  <ellipse cx="60" cy="72" rx="40" ry="30" fill="url(#potRed)"/>
  <!-- Pot rim -->
  <ellipse cx="60" cy="50" rx="42" ry="8" fill="#D32F2F" stroke="#B71C1C" stroke-width="1"/>
  <!-- Broth -->
  <ellipse cx="60" cy="52" rx="36" ry="6" fill="url(#broth)"/>
  <!-- Food items -->
  <circle cx="48" cy="52" r="5" fill="#4CAF50" opacity="0.8"/> <!-- Vegetable -->
  <circle cx="72" cy="52" r="5" fill="#FFCC80" opacity="0.8"/> <!-- Tofu -->
  <rect x="56" y="46" width="8" height="10" rx="2" fill="#D32F2F" opacity="0.7"/> <!-- Meat -->
  <!-- Handles -->
  <path d="M18 62 Q10 62 10 70 Q10 78 18 78" fill="none" stroke="#B71C1C" stroke-width="4" stroke-linecap="round"/>
  <path d="M102 62 Q110 62 110 70 Q110 78 102 78" fill="none" stroke="#B71C1C" stroke-width="4" stroke-linecap="round"/>
</svg>